<?xml version="1.0" encoding="UTF-8" standalone="no"?>
<svg
   viewBox="0 0 512 512"
   version="1.1"
   id="svg988"
   sodipodi:docname="AlsetLogo3L.svg"
   inkscape:version="1.1.2 (b8e25be833, 2022-02-05)"
   inkscape:export-filename="C:\Users\catma\Downloads\AlsetLogo3.png"
   inkscape:export-xdpi="107.8125"
   inkscape:export-ydpi="107.8125"
   xmlns:inkscape="http://www.inkscape.org/namespaces/inkscape"
   xmlns:sodipodi="http://sodipodi.sourceforge.net/DTD/sodipodi-0.dtd"
   xmlns="http://www.w3.org/2000/svg"
   xmlns:svg="http://www.w3.org/2000/svg">
  <defs
     id="defs992">
    <linearGradient
       id="linearGradient23888"
       inkscape:swatch="solid">
      <stop
         style="stop-color:#414141;stop-opacity:1;"
         offset="0"
         id="stop23886" />
    </linearGradient>
  </defs>
  <sodipodi:namedview
     id="namedview990"
     pagecolor="#ffffff"
     bordercolor="#666666"
     borderopacity="1.0"
     inkscape:pageshadow="2"
     inkscape:pageopacity="0.0"
     inkscape:pagecheckerboard="0"
     showgrid="false"
     showguides="true"
     inkscape:guide-bbox="true"
     inkscape:zoom="1.1770871"
     inkscape:cx="363.18467"
     inkscape:cy="329.62725"
     inkscape:window-width="1920"
     inkscape:window-height="1017"
     inkscape:window-x="-8"
     inkscape:window-y="-8"
     inkscape:window-maximized="1"
     inkscape:current-layer="layer1" />
  <g
     inkscape:groupmode="layer"
     id="layer2"
     inkscape:label="Layer 2">
    <ellipse
       style="fill:#fd7e14;fill-opacity:1;stroke:#b6b6b6;stroke-width:14.9665;stroke-opacity:1"
       id="path6824"
       cx="259.92709"
       cy="256.82877"
       rx="185.32808"
       ry="182.75523" />
    <text
       xml:space="preserve"
       style="font-size:192px;line-height:1.25;font-family:sans-serif"
       x="5.9468832"
       y="85.805031"
       id="text38737"><tspan
         sodipodi:role="line"
         id="tspan38735" /></text>
  </g>
  <!--! Font Awesome Pro 6.0.0 by @fontawesome - https://fontawesome.com License - https://fontawesome.com/license (Commercial License) Copyright 2022 Fonticons, Inc. -->
  <g
     inkscape:groupmode="layer"
     id="layer1"
     inkscape:label="Layer 1"
     style="display:inline">
    <g
       id="g6680"
       transform="matrix(0.32483458,-0.51115009,0.51115009,0.32483458,20.328983,440.41188)"
       inkscape:transform-center-x="0.21342226"
       inkscape:transform-center-y="-1.6461697"
       style="fill:#b4b4b4;stroke:#b6b6b6">
      <path
         d="m 319.94923,-6.6657374 c -1.63636,0.06855 -3.07736,-0.302679 -4.28201,-0.975882 -3.75452,-2.098149 -5.20606,-7.1283936 -3.09864,-10.8994936 0.63808,-1.141805 1.6027,-2.168715 2.9276,-2.963363 l 162.63124,-82.342864 c 1.28675,-0.66819 2.69665,-0.56991 3.81141,0.053 1.15664,0.64637 1.99591,1.85862 2.04789,3.36452 l -0.29076,93.7414356 z"
         id="path5876"
         sodipodi:nodetypes="cssccsccc"
         style="fill:#b4b4b4;stroke:#b6b6b6" />
      <path
         d="m 641.44269,-6.6657374 c 1.63636,0.06855 3.07736,-0.302679 4.28201,-0.975882 3.75452,-2.098149 5.20606,-7.1283936 3.09864,-10.8994936 -0.63808,-1.141805 -1.6027,-2.168715 -2.9276,-2.963363 L 483.2645,-103.84734 c -1.28675,-0.66819 -2.69665,-0.56991 -3.81141,0.053 -1.15664,0.64637 -1.99591,1.85862 -2.04789,3.36452 l 0.29076,93.7414356 z"
         id="path5876-7"
         sodipodi:nodetypes="cssccsccc"
         style="display:inline;fill:#b4b4b4;stroke:#b6b6b6" />
    </g>
    <g
       id="g6676"
       transform="matrix(0.32021771,0.51405499,-0.51405499,0.32021771,397.91166,164.75984)"
       style="fill:#999999">
      <g
         id="g15626"
         style="fill:#999999">
        <path
           d="m -165.84406,96.391488 c -1.63636,0.06855 -3.07736,-0.302679 -4.28201,-0.975882 -3.75452,-2.098149 -5.20606,-7.128394 -3.09864,-10.899494 0.63808,-1.141805 1.6027,-2.168715 2.9276,-2.963363 L -7.6658701,-0.79011298 c 1.28675,-0.66819002 2.69665,-0.56991002 3.81141,0.053 1.15664,0.64637 1.99591,1.85861998 2.04789,3.36451998 l -0.29076,93.741434 z"
           id="path5876-0"
           sodipodi:nodetypes="cssccsccc"
           style="display:inline;fill:#999999" />
        <path
           d="m 155.6494,96.391488 c 1.63636,0.06855 3.07736,-0.302679 4.28201,-0.975882 3.75452,-2.098149 5.20606,-7.128394 3.09864,-10.899494 -0.63808,-1.141805 -1.6027,-2.168715 -2.9276,-2.963363 L -2.5287901,-0.79011298 c -1.28675,-0.66819002 -2.69665,-0.56991002 -3.81141,0.053 -1.15664,0.64637 -1.99591,1.85861998 -2.04789,3.36451998 l 0.29076,93.741434 z"
           id="path5876-7-2"
           sodipodi:nodetypes="cssccsccc"
           style="display:inline;fill:#999999" />
      </g>
    </g>
    <path
       d="m 394.35615,352.86337 c 1.46684,0 2.38014,1.22883 2.38014,2.46371 0,0.83457 -0.41747,1.67216 -1.36389,2.13425 l -117.73514,53.08984 c -0.66801,0.30838 -1.35722,0.45077 -2.02887,0.45077 -2.54366,0 -4.84143,-2.04159 -4.84143,-4.84143 v -39.78407 l 123.30696,-13.49351 c 0.04,0.52551 0.1611,-0.0196 0.28223,-0.0196 z"
       id="path5872"
       style="fill:#999999;stroke-width:0.605633" />
    <path
       d="m 194.92105,207.51133 57.89251,-101.98868 c 1.88352,-2.52549 7.6976,-4.05775 7.6976,-4.05775 h 2.54674 l 0.28985,106.60603 h -68.4267 z"
       id="path5868"
       style="fill:#b4b4b4;stroke-width:0.605633;stroke:#b6b6b6"
       sodipodi:nodetypes="ccscccc" />
    <path
       d="M 329.7788,207.57564 271.8863,105.58696 c -1.88352,-2.52549 -7.6976,-4.05774 -7.6976,-4.05774 l -1.79451,0.0419 0.95356,106.49984 h 65.87996 z"
       id="path5868-9"
       style="display:inline;fill:#999999;stroke-width:0.605633"
       sodipodi:nodetypes="ccccccc" />
    <path
       d="m 124.84925,355.89153 c 0,-1.23488 0.9133,-2.46371 2.38014,-2.46371 0.10018,0 0.20295,0.006 0.30821,0.0176 l 123.30698,13.51168 v 39.7659 c -0.0236,2.76708 -1.77989,4.82623 -4.32355,4.82623 -0.67407,0 -1.36571,-0.14456 -2.03675,-0.45816 L 126.757,358.01125 c -0.94479,-0.48451 -1.90775,-1.33239 -1.90775,-2.11972 z"
       id="path5864"
       style="fill:#b4b4b4;stroke-width:0.605633;stroke:#b6b6b6" />
    <g
       id="g9814"
       transform="matrix(0.60563348,0,0,0.60563348,98.504523,110.09315)"
       style="fill:#999999">
      <path
         d="m 505.19946,356.65335 c 0.8,1.4 1.2,2.79999 1.2,4.19999 0,3.87201 -2.841,7.499 -7.128,7.98 l -234.07772,22.12 134.47774,-190.15999 z"
         id="path5874"
         style="fill:#999999;fill-opacity:1" />
      <path
         d="m 401.67148,200.79334 -134.47774,190.16 2.07718,-186.49563 z"
         id="path5870"
         style="fill:#999999;fill-opacity:1"
         sodipodi:nodetypes="cccc" />
    </g>
    <path
       d="M 261.53727,346.86758 121.27602,333.50731 c -2.58605,-0.29197 -4.31392,-2.49339 -4.31392,-4.84204 0,-0.84849 0.22559,-1.71636 0.71767,-2.52004 l 63.85678,-94.40857 80.64819,2.18292 z"
       id="path5862"
       style="fill:#b4b4b4;fill-opacity:1;stroke-width:0.605633;stroke:#b6b6b6"
       sodipodi:nodetypes="ccscccc" />
  </g>
  <g
     inkscape:groupmode="layer"
     id="layer3"
     inkscape:label="Layer 3" />
  <g
     inkscape:groupmode="layer"
     id="layer4"
     inkscape:label="Layer 4" />
</svg>
